<?xml version="1.0" encoding="UTF-8"?>
<svg version="1.1" xmlns="http://www.w3.org/2000/svg" width="841" height="223">
<path d="M0 0 C1.30904297 0.65355469 1.30904297 0.65355469 2.64453125 1.3203125 C8.76427543 4.67837303 13.25824112 8.90699972 18 14 C18.33 9.05 18.66 4.1 19 -1 C35.17 -1 51.34 -1 68 -1 C68 42.56 68 86.12 68 131 C52.16 131 36.32 131 20 131 C19.505 122.09 19.505 122.09 19 113 C17.906875 114.340625 16.81375 115.68125 15.6875 117.0625 C7.86774205 125.83386871 -4.25736814 133.23406982 -16.25146484 134.17700195 C-36.63431383 134.68485336 -53.33705521 131.92587187 -68.83984375 117.3515625 C-76.18513105 109.35542696 -81.55967846 100.30747317 -85 90 C-85.31839844 89.07703125 -85.63679688 88.1540625 -85.96484375 87.203125 C-91.74226642 67.07532988 -88.74574977 44.52436499 -78.9765625 26.25390625 C-70.00931995 11.4916275 -57.8294182 2.02816141 -41.3671875 -3.140625 C-28.68288523 -6.11573097 -11.72261492 -6.07839292 0 0 Z M-32.75 44.6875 C-38.5115383 51.74109953 -40.73993968 58.96280799 -40.37890625 68.046875 C-39.27965858 76.61420736 -35.34772786 83.22933831 -29 89 C-20.70329196 95.23416193 -13.30236097 95.80558109 -3 95 C4.16992552 93.16558923 10.66950088 88.87007756 14.5078125 82.49609375 C19.05323177 73.57408508 20.61162252 65.11638136 18.3515625 55.13671875 C15.44722493 47.1559963 10.65241397 41.16410108 3.1875 37.0625 C-10.03250768 31.13352686 -22.93483629 34.35025312 -32.75 44.6875 Z " fill="#010101" transform="translate(440,89)"/>
<path d="M0 0 C1.30904297 0.65355469 1.30904297 0.65355469 2.64453125 1.3203125 C8.76427543 4.67837303 13.25824112 8.90699972 18 14 C18.33 9.05 18.66 4.1 19 -1 C35.17 -1 51.34 -1 68 -1 C68 42.56 68 86.12 68 131 C52.16 131 36.32 131 20 131 C19.505 122.09 19.505 122.09 19 113 C17.906875 114.340625 16.81375 115.68125 15.6875 117.0625 C7.86774205 125.83386871 -4.25736814 133.23406982 -16.25146484 134.17700195 C-36.63431383 134.68485336 -53.33705521 131.92587187 -68.83984375 117.3515625 C-76.18513105 109.35542696 -81.55967846 100.30747317 -85 90 C-85.31839844 89.07703125 -85.63679688 88.1540625 -85.96484375 87.203125 C-91.74226642 67.07532988 -88.74574977 44.52436499 -78.9765625 26.25390625 C-70.00931995 11.4916275 -57.8294182 2.02816141 -41.3671875 -3.140625 C-28.68288523 -6.11573097 -11.72261492 -6.07839292 0 0 Z M-32.75 44.6875 C-38.5115383 51.74109953 -40.73993968 58.96280799 -40.37890625 68.046875 C-39.27965858 76.61420736 -35.34772786 83.22933831 -29 89 C-20.70329196 95.23416193 -13.30236097 95.80558109 -3 95 C4.16992552 93.16558923 10.66950088 88.87007756 14.5078125 82.49609375 C19.05323177 73.57408508 20.61162252 65.11638136 18.3515625 55.13671875 C15.44722493 47.1559963 10.65241397 41.16410108 3.1875 37.0625 C-10.03250768 31.13352686 -22.93483629 34.35025312 -32.75 44.6875 Z " fill="#010101" transform="translate(88,89)"/>
<path d="M0 0 C13.73049411 10.68976571 23.26396992 25.5873249 25.96484375 42.8984375 C28.57101901 63.87924335 25.13767727 83.25817289 12.0390625 100.421875 C0.19783033 114.49280902 -15.93739537 122.55332058 -34.03515625 124.8984375 C-56.95517582 126.60443995 -78.87971102 123.9134738 -97.0234375 108.6875 C-97.68730469 108.09710938 -98.35117187 107.50671875 -99.03515625 106.8984375 C-100.04642578 106.04378906 -100.04642578 106.04378906 -101.078125 105.171875 C-111.68627421 95.52810299 -119.26286991 79.74952243 -120.19628906 65.42578125 C-120.55732053 43.15937544 -117.82163957 24.83786623 -102.03515625 7.8984375 C-76.04210607 -18.82475454 -30.09955692 -20.84113465 0 0 Z M-67.03515625 35.8984375 C-72.65830868 45.43334815 -75.02087364 54.79368883 -72.31640625 65.83203125 C-69.19129864 74.11104617 -64.78016319 79.20859404 -56.71875 82.921875 C-48.83188617 85.79191279 -41.54608066 85.39296579 -33.97265625 81.96484375 C-27.17864819 78.24615373 -23.5806441 72.62165823 -20.66015625 65.5859375 C-18.90175455 55.21136747 -19.66191419 45.85939676 -25.35546875 36.796875 C-29.6191398 31.321669 -35.28575485 28.29802267 -42.03515625 26.8984375 C-51.48310212 25.77718322 -60.50120473 28.9086289 -67.03515625 35.8984375 Z " fill="#010101" transform="translate(814.03515625,98.1015625)"/>
<path d="M0 0 C17.49 0 34.98 0 53 0 C54.4953125 4.14820312 55.990625 8.29640625 57.53125 12.5703125 C58.49736265 15.25001197 59.46349351 17.92970486 60.4296875 20.609375 C61.95232066 24.83229471 63.47489815 29.05523441 64.99707031 33.27832031 C70.97420589 49.86091937 76.96344839 66.43890902 83 83 C84.88538043 80.17192935 85.88810123 77.8457561 87.02783203 74.66845703 C87.42229523 73.57526154 87.81675842 72.48206604 88.22317505 71.35574341 C88.64710541 70.16842621 89.07103577 68.98110901 89.5078125 67.7578125 C90.18738956 65.87145051 90.86696876 63.98508928 91.54665947 62.09876823 C92.50216802 59.44388049 93.45400394 56.7876821 94.40582275 54.13146973 C96.49716305 48.29673146 98.5946556 42.46420246 100.6953125 36.6328125 C100.92148506 36.0049308 101.14765762 35.3770491 101.3806839 34.73014069 C104.39938982 26.35705199 107.46117692 18.00205722 110.6171875 9.6796875 C110.94848663 8.80240997 111.27978577 7.92513245 111.62112427 7.02127075 C113.87643174 1.12356826 113.87643174 1.12356826 115 0 C116.62674778 -0.09340434 118.25754051 -0.11745171 119.88696289 -0.11352539 C120.92796646 -0.11344986 121.96897003 -0.11337433 123.04151917 -0.11329651 C124.1737944 -0.10813522 125.30606964 -0.10297394 126.47265625 -0.09765625 C128.20182533 -0.09553383 128.20182533 -0.09553383 129.96592712 -0.09336853 C133.66481064 -0.08775005 137.36363464 -0.07519442 141.0625 -0.0625 C143.56315017 -0.05748738 146.06380129 -0.05292406 148.56445312 -0.04882812 C154.70965588 -0.03777462 160.85482369 -0.02101852 167 0 C165.06881035 6.05238475 162.88092149 11.92544475 160.40234375 17.7734375 C159.88303787 19.01009911 159.88303787 19.01009911 159.35324097 20.27174377 C158.2176784 22.97410973 157.07756051 25.67452893 155.9375 28.375 C155.13270381 30.28834447 154.32826693 32.20184011 153.52416992 34.11547852 C151.85248172 38.09304184 150.1792511 42.06995088 148.50488281 46.04638672 C144.96950844 54.44542076 141.45132843 62.85164309 137.93383789 71.25817871 C136.81651612 73.92790391 135.69838769 76.59729001 134.58007812 79.26660156 C130.89646617 88.06141003 127.22384086 96.86061719 123.5703125 105.66796875 C122.86614351 107.36401946 122.16196087 109.06006451 121.45776367 110.75610352 C120.13741732 113.93643045 118.8203536 117.11809006 117.50512695 120.30053711 C116.91889767 121.71342667 116.33255989 123.12627123 115.74609375 124.5390625 C115.48035553 125.1846965 115.21461731 125.83033051 114.94082642 126.49552917 C113.11364024 130.88635976 113.11364024 130.88635976 112 132 C110.22008076 132.09370624 108.43643261 132.11744271 106.65405273 132.11352539 C105.5129454 132.11344986 104.37183807 132.11337433 103.19615173 132.11329651 C101.9545076 132.10813522 100.71286346 132.10297394 99.43359375 132.09765625 C97.53795433 132.09553383 97.53795433 132.09553383 95.60401917 132.09336853 C92.23875111 132.08870582 88.8735501 132.0797148 85.50830078 132.06866455 C82.0765033 132.05844846 78.64469891 132.05387049 75.21289062 132.04882812 C68.47524176 132.0377738 61.73762475 132.0210171 55 132 C50.67244894 122.88201624 46.55032914 113.72815967 42.75 104.375 C41.70860469 101.8352758 40.66600853 99.29608698 39.62109375 96.7578125 C39.3408989 96.07682495 39.06070404 95.3958374 38.77201843 94.69421387 C35.24688449 86.14581742 31.63319561 77.63477698 28.02761841 69.12008667 C21.46230465 53.6129399 14.92057707 38.09603936 8.45150757 22.54846191 C7.69527524 20.73194822 6.93781843 18.91594378 6.17910767 17.10046387 C5.13281263 14.59576647 4.0911128 12.08921033 3.05078125 9.58203125 C2.73927124 8.83844864 2.42776123 8.09486603 2.10681152 7.32875061 C0 2.22898504 0 2.22898504 0 0 Z " fill="#010101" transform="translate(174,88)"/>
<path d="M0 0 C16.17 0 32.34 0 49 0 C49 72.6 49 145.2 49 220 C32.83 220 16.66 220 0 220 C0 147.4 0 74.8 0 0 Z " fill="#010101" transform="translate(621,0)"/>
<path d="M0 0 C16.5 0 33 0 50 0 C50 43.56 50 87.12 50 132 C33.5 132 17 132 0 132 C0 88.44 0 44.88 0 0 Z " fill="#010101" transform="translate(539,88)"/>
<path d="M0 0 C6.84235728 4.42334208 10.74116318 10.62731738 12.59765625 18.55078125 C13.54766479 25.57210872 12.65894403 31.74846971 9.4375 38.0625 C3.79563876 44.86166611 -2.14016434 50.59574329 -11.1875 51.75 C-18.93564113 52.4590645 -26.82918202 50.90761524 -33 46 C-39.89141377 39.5527314 -43.05168606 33.55332815 -43.4375 24.125 C-43.17983761 15.94164253 -40.91363658 9.70180369 -35.375 3.625 C-25.39923551 -5.46730195 -11.58344528 -7.14200865 0 0 Z " fill="#010101" transform="translate(580,11)"/>
</svg>
