<?xml version="1.0" encoding="UTF-8"?>
<svg version="1.1" xmlns="http://www.w3.org/2000/svg" width="1024" height="1024">
<path d="M0 0 C337.92 0 675.84 0 1024 0 C1024 337.92 1024 675.84 1024 1024 C686.08 1024 348.16 1024 0 1024 C0 686.08 0 348.16 0 0 Z " fill="#FEFEFE" transform="translate(0,0)"/>
<path d="M0 0 C56.1 0 112.2 0 170 0 C186.43937427 48.1438818 186.43937427 48.1438818 193.5 69.375 C193.8969809 70.56716125 194.29396179 71.75932251 194.70297241 72.98760986 C201.37198175 93.01827336 207.95329366 113.07632687 214.45800781 133.16088867 C216.57419073 139.69337202 218.7013391 146.22223598 220.83203125 152.75 C221.47291337 154.71435123 222.11378263 156.67870666 222.75463867 158.64306641 C223.67526944 161.4648997 224.5961352 164.28665464 225.51797485 167.10809326 C228.3902642 175.90076619 231.23113545 184.69681725 233.92724609 193.54541016 C236.36365724 201.39138598 238.94840823 209.19088872 241.5 217 C248.05510988 237.061823 248.05510988 237.061823 251.11914062 247.12109375 C252.53863036 251.76040166 254.02114035 256.379348 255.5 261 C257.68986795 267.86135469 259.85374997 274.72871168 261.95703125 281.6171875 C264.26148706 289.09156477 266.63791181 296.54367494 269 304 C271.08354074 300.87468888 272.18128114 298.05819061 273.4609375 294.53125 C273.6927774 293.8957019 273.92461731 293.26015381 274.16348267 292.60534668 C274.90439776 290.57156941 275.63978106 288.53584247 276.375 286.5 C276.861614 285.16132554 277.34858971 283.8227825 277.8359375 282.484375 C278.79137756 279.85948105 279.7422447 277.23299122 280.69042969 274.60546875 C281.47051653 272.45775761 282.25956273 270.31321554 283.06738281 268.17578125 C284.97536953 263.10571404 286.61763223 257.99806237 288.11328125 252.79296875 C291.91678718 239.57974218 296.25592133 226.52806908 300.49523926 213.4498291 C301.40683438 210.63531331 302.31577826 207.81994464 303.22469902 205.00456429 C307.65530119 191.28405154 312.12649664 177.57941758 316.71525574 163.9109211 C319.64455296 155.18461545 322.53566144 146.46686154 325.05554199 137.61256409 C327.05268145 130.66302557 329.28850849 123.79138665 331.51953125 116.9140625 C331.7279962 116.27127287 331.93646114 115.62848324 332.15124321 114.96621513 C333.24602969 111.59218602 334.34255689 108.21872553 335.43997192 104.84555054 C337.78472193 97.637594 340.12039331 90.42669777 342.453125 83.21484375 C342.68775515 82.48953524 342.92238529 81.76422672 343.16412544 81.01693916 C348.55578008 64.34108415 353.81180081 47.6237216 359.0246582 30.89111328 C364.11838846 14.5424283 364.11838846 14.5424283 366.30859375 7.80078125 C366.59404053 6.92204346 366.8794873 6.04330566 367.17358398 5.13793945 C368 3 368 3 370 0 C372.04209328 -0.36914349 372.04209328 -0.36914349 374.60635376 -0.36076355 C376.06191933 -0.36694954 376.06191933 -0.36694954 377.54689026 -0.3732605 C378.61503464 -0.36247467 379.68317902 -0.35168884 380.78369141 -0.34057617 C381.90564407 -0.34101425 383.02759674 -0.34145233 384.18354797 -0.34190369 C387.90639414 -0.33980718 391.62879463 -0.316435 395.3515625 -0.29296875 C397.92702997 -0.28737588 400.50250062 -0.28310433 403.07797241 -0.28010559 C409.17307872 -0.26980636 415.26800003 -0.24614222 421.36303651 -0.21605712 C428.30125947 -0.18255177 435.23949003 -0.16603687 442.17777371 -0.15097082 C456.45193568 -0.11959358 470.72596213 -0.06680898 485 0 C484.69238202 1.91642486 484.38146063 3.83231966 484.06915283 5.74798584 C483.89636433 6.81495571 483.72357582 7.88192558 483.5455513 8.98122787 C482.87368659 12.6989469 481.88384425 16.06090768 480.671875 19.640625 C480.44676743 20.31306244 480.22165985 20.98549988 479.98973083 21.67831421 C479.25236033 23.87211304 478.50160663 26.06104178 477.75 28.25 C477.21471715 29.82973469 476.67998132 31.40965483 476.14575195 32.98974609 C474.4470408 37.99889368 472.72641578 43.00034258 471 48 C470.71968933 48.81239136 470.43937866 49.62478271 470.15057373 50.46179199 C461.97676538 74.13107546 453.56114821 97.71494074 445.11799622 121.28919983 C442.49855889 128.6039261 439.88502053 135.92074738 437.2734375 143.23828125 C436.44474421 145.56005908 435.61604954 147.88183642 434.78735352 150.20361328 C434.16173019 151.95644623 434.16173019 151.95644623 433.52346802 153.74468994 C428.0832356 168.98631021 422.64086115 184.22710188 417.16796875 199.45703125 C409.12489966 221.84282674 401.13066299 244.24394372 393.25 266.6875 C380.48971838 303.02567534 367.47827847 339.27257362 354.44335938 375.51293945 C353.46612843 378.22997421 352.488914 380.9470149 351.51171875 383.6640625 C351.27313015 384.32743055 351.03454155 384.99079861 350.78872299 385.67426872 C347.6910072 394.28780871 344.60058919 402.90392233 341.51953125 411.5234375 C340.86468941 413.35393136 340.20982392 415.18441676 339.55493164 417.01489258 C338.39165133 420.26651543 337.23103319 423.51907041 336.07202148 426.7722168 C335.56375141 428.19323671 335.05537673 429.61421922 334.546875 431.03515625 C334.12245117 432.2250415 333.69802734 433.41492676 333.26074219 434.64086914 C331.94877359 438.13648802 330.47078161 441.56817624 329 445 C275.54 445 222.08 445 167 445 C164.36 437.41 161.72 429.82 159 422 C156.51584677 415.05637421 154.02212358 408.11728125 151.5 401.1875 C150.99741669 399.8045575 150.99741669 399.8045575 150.48468018 398.39367676 C144.306028 381.40736517 137.92762206 364.50050646 131.45233154 347.62528992 C130.54549911 345.2606524 129.6413307 342.89500844 128.73730469 340.52929688 C127.57461321 337.48861266 126.39616473 334.45464483 125.20800781 331.42382812 C124.65151276 329.98574671 124.09518932 328.54759886 123.5390625 327.109375 C123.28119965 326.46204407 123.02333679 325.81471313 122.75765991 325.14776611 C121.41083695 321.63702931 120.70944258 318.76383611 121 315 C120.39776611 315.01160156 119.79553223 315.02320313 119.17504883 315.03515625 C83.7176036 315.41829507 46.98951096 305.25865015 12.35180664 298.52661133 C11.51197235 298.36424988 10.67213806 298.20188843 9.80685425 298.03460693 C8.25776754 297.73491981 6.70908046 297.43315488 5.16091919 297.12872314 C0.45455969 296.21976346 -4.23801149 295.55088818 -9 295 C-9.11988281 296.3303125 -9.11988281 296.3303125 -9.2421875 297.6875 C-10.10894298 303.6564965 -12.20872245 309.30252299 -14.125 315 C-14.34373779 315.65290009 -14.56247559 316.30580017 -14.7878418 316.97848511 C-18.95168842 329.36363448 -23.57446733 341.55251531 -28.31567383 353.72607422 C-35.28792973 371.63966437 -42.04686085 389.6326349 -48.8125 407.625 C-49.40607772 409.20338289 -49.99966491 410.78176223 -50.59326172 412.36013794 C-51.02845485 413.51732724 -51.02845485 413.51732724 -51.47243977 414.6978941 C-52.59614866 417.68561464 -53.72014929 420.6732254 -54.84413719 423.66084099 C-55.62741756 425.74355777 -56.4099866 427.82654075 -57.19245911 429.90956116 C-57.66970947 431.17880968 -58.14697794 432.4480514 -58.62426758 433.71728516 C-59.03647049 434.8143277 -59.4486734 435.91137024 -59.87336731 437.04165649 C-60.88773405 439.70520893 -61.94147458 442.35368645 -63 445 C-99.3 445 -135.6 445 -173 445 C-170.74658754 433.73293769 -170.74658754 433.73293769 -168.8203125 428.296875 C-168.38460937 427.06582031 -167.94890625 425.83476563 -167.5 424.56640625 C-167.27183594 423.9336377 -167.04367188 423.30086914 -166.80859375 422.64892578 C-166.15210064 420.82528171 -165.50934137 418.9967113 -164.8671875 417.16796875 C-160.50102166 404.85520726 -155.54660546 392.7688926 -150.67148781 380.6516161 C-147.05073791 371.64758449 -143.463843 362.63006583 -139.875 353.61328125 C-139.15492812 351.80454995 -138.43485569 349.99581887 -137.71478271 348.18708801 C-135.47582494 342.56250254 -133.23781058 336.93754198 -131 331.3125 C-130.61558998 330.3463187 -130.23117996 329.38013741 -129.83512115 328.38467789 C-118.53429769 299.97998176 -107.29294025 271.55368621 -96.16343689 243.08137512 C-92.40189588 233.46217785 -88.61136593 223.85450907 -84.8125 214.25 C-84.47678986 213.4011322 -84.14107971 212.5522644 -83.79519653 211.67767334 C-79.2587044 200.20960051 -74.7090605 188.74675842 -70.15625 177.28515625 C-68.04148116 171.96101117 -65.92686536 166.63680533 -63.8125 161.3125 C-63.54604675 160.64153164 -63.27959351 159.97056328 -63.00506592 159.27926254 C-55.23860525 139.7209315 -47.50221599 120.15116401 -39.8125 100.5625 C-39.36950562 99.43404663 -38.92651123 98.30559326 -38.47009277 97.14294434 C-34.82032119 87.84423321 -31.17351886 78.54435818 -27.52758789 69.24414062 C-24.76617116 62.20023571 -22.00411491 55.15658295 -19.24026775 48.11363125 C-17.59782348 43.92800975 -15.95750983 39.74155718 -14.31762695 35.55493164 C-13.45272123 33.35039002 -12.58773507 31.14587995 -11.72265625 28.94140625 C-11.34747864 27.98218262 -10.97230103 27.02295898 -10.58575439 26.03466797 C-7.15873194 17.31079511 -3.57051912 8.67126073 0 0 Z " fill="#000000" transform="translate(356,290)"/>
<path d="M0 0 C6.30547559 4.35619371 8.57986894 8.65770983 10.8046875 15.87109375 C11.1259964 16.84494019 11.4473053 17.81878662 11.77835083 18.82214355 C12.46936692 20.92366065 13.15035393 23.02849694 13.82226562 25.13619995 C15.62609827 30.7928907 17.50266234 36.42558827 19.3671875 42.0625 C19.74776306 43.22031479 20.12833862 44.37812958 20.52044678 45.57102966 C24.43889081 57.44885831 28.69735089 69.19459283 33 80.9375 C37.5858047 93.50008128 42.14758782 106.06145119 46.375 118.75 C46.71402344 119.76570068 47.05304688 120.78140137 47.40234375 121.82788086 C53 138.87994615 53 138.87994615 53 144 C47.21692416 145.1177893 41.40329096 145.49915303 35.5390625 145.9375 C34.43452728 146.02249756 33.32999207 146.10749512 32.19198608 146.19506836 C28.66984493 146.46589947 25.14745349 146.73326418 21.625 147 C18.10970936 147.2669963 14.59448865 147.53480305 11.07943726 147.80493164 C8.89584553 147.9726755 6.71211461 148.13862013 4.52822876 148.30249023 C0.28900284 148.62762336 -3.92582977 148.96324901 -8.13720703 149.55249023 C-12.63039488 150.0730321 -17.01373878 150.12562465 -21.53125 150.09765625 C-22.84603333 150.09553383 -22.84603333 150.09553383 -24.18737793 150.09336853 C-26.95828821 150.08781768 -29.72911457 150.07527461 -32.5 150.0625 C-34.39062382 150.05747864 -36.28124893 150.05291685 -38.171875 150.04882812 C-42.78128183 150.0378644 -47.39062673 150.02063425 -52 150 C-51.39775717 144.07744613 -49.74045082 138.90830964 -47.7109375 133.328125 C-47.37603302 132.39019104 -47.04112854 131.45225708 -46.69607544 130.48590088 C-45.97303251 128.46312071 -45.24700857 126.44140412 -44.51831055 124.4206543 C-42.95902592 120.09641141 -41.4140784 115.76709067 -39.86834717 111.43798828 C-39.07256042 109.2095402 -38.2760455 106.98135203 -37.4788208 104.75341797 C-34.06810673 95.21621597 -30.72194267 85.65745291 -27.39932251 76.08926392 C-21.92083638 60.31600539 -16.39811216 44.5583938 -10.8359375 28.81445312 C-10.0754264 26.66096506 -9.3158111 24.50716042 -8.55712891 22.35302734 C-7.50292263 19.36072857 -6.44531144 16.36965558 -5.38671875 13.37890625 C-5.07284714 12.4862355 -4.75897552 11.59356476 -4.43559265 10.67384338 C-4.14320206 9.85020798 -3.85081146 9.02657257 -3.54956055 8.17797852 C-3.29724167 7.46384293 -3.04492279 6.74970734 -2.78495789 6.01393127 C-1.97512794 3.93618686 -1.02737884 1.97805445 0 0 Z " fill="#FCFCFC" transform="translate(407,417)"/>
</svg>
